<svg width="532" height="532" viewBox="0 0 532 532" fill="none" xmlns="http://www.w3.org/2000/svg">
<rect width="512" height="512" transform="translate(10 10)" fill="none"/>
<path d="M378.5 225.219C378.53 206.663 373.97 188.387 365.226 172.02C356.482 155.654 343.825 141.704 328.383 131.415C312.941 121.125 295.194 114.815 276.722 113.046C258.25 111.278 239.628 114.106 222.514 121.278C205.401 128.451 190.327 139.746 178.636 154.156C166.945 168.566 159 185.644 155.509 203.869C152.018 222.094 153.089 240.899 158.627 258.61C164.165 276.32 173.998 292.386 187.25 305.375C194.189 311.885 199.754 319.718 203.618 328.413C207.482 337.107 209.567 346.487 209.75 356V364.437H322.25V356.984C322.445 347.248 324.572 337.648 328.507 328.74C332.441 319.832 338.106 311.795 345.172 305.094C355.725 294.64 364.104 282.199 369.825 268.49C375.545 254.78 378.493 240.074 378.5 225.219Z" stroke="white" stroke-width="12" stroke-linecap="round" stroke-linejoin="round" fill="none"/>
<path d="M209.75 406.625H266H322.25" stroke="white" stroke-width="12" stroke-linecap="round" stroke-linejoin="round"/>
<path d="M209.75 385.531H266H322.25" stroke="white" stroke-width="12" stroke-linecap="round" stroke-linejoin="round"/>
<path d="M223.812 427.719H308.188" stroke="white" stroke-width="12" stroke-linecap="round" stroke-linejoin="round"/>
<path d="M237.875 448.812H294.125" stroke="white" stroke-width="12" stroke-linecap="round" stroke-linejoin="round"/>
</svg>
